name analog
datacolumns 19
datarows 23
range 0.198 0.209
endheader
time	ground_force_vx	ground_force_vy	ground_force_vz	ground_force_px	ground_force_py	ground_force_pz	l_ground_force_vx	l_ground_force_vy	l_ground_force_vz	l_ground_force_px	l_ground_force_py	l_ground_force_pz	ground_torque_x	ground_torque_y	ground_torque_z	l_ground_torque_x	l_ground_torque_y	l_ground_torque_z
0.198	-0.0	-0.0	-0.0	0.4197014570236206	27.728330612182617	-314.0291442871094	-0.7835609912872314	-32.59439849853516	-349.57379150390625	-0.0	-0.0	-0.0	-0.0	-0.0	-0.0	82935.765625	-27709.98828125	20.827795028686523
0.1985	-0.0	-0.0	-0.0	-0.3391285240650177	28.410476684570312	-319.4700927734375	0.436063289642334	-31.634078979492188	-346.0534973144531	-0.0	-0.0	-0.0	-0.0	-0.0	-0.0	82079.734375	-27917.1796875	139.34288024902344
0.199	-0.0	-0.0	-0.0	-0.356842041015625	29.145641326904297	-320.65167236328125	1.141763687133789	-32.04173278808594	-343.216064453125	-0.0	-0.0	-0.0	-0.0	-0.0	-0.0	81351.3984375	-27883.68359375	263.4873962402344
0.1995	-0.0	-0.0	-0.0	-0.7937631011009216	30.014137268066406	-325.2245178222656	1.5042014122009275	-31.984045028686523	-342.7904968261719	-0.0	-0.0	-0.0	-0.0	-0.0	-0.0	80779.5078125	-27884.041015625	523.00439453125
0.2	-0.0	-0.0	-0.0	-0.8828951716423035	30.834518432617188	-327.3431396484375	2.20208740234375	-31.98806381225586	-339.01080322265625	-0.0	-0.0	-0.0	-0.0	-0.0	-0.0	80441.203125	-27952.625	413.9817504882813
0.2005	-0.0	-0.0	-0.0	-1.8546873331069944	31.547483444213867	-332.9374694824219	1.7742156982421875	-33.01240539550781	-336.6451110839844	-0.0	-0.0	-0.0	-0.0	-0.0	-0.0	80493.25	-28550.841796875	526.8294067382812
0.201	-0.0	-0.0	-0.0	-1.6294883489608765	32.52786636352539	-336.67431640625	0.8992729187011719	-33.221065521240234	-339.692626953125	-0.0	-0.0	-0.0	-0.0	-0.0	-0.0	80506.953125	-29058.47265625	410.20989990234375
0.2015	-0.0	-0.0	-0.0	-2.418324708938598	34.20199203491211	-346.7272644042969	0.8664318323135376	-33.98326873779297	-339.7082824707031	-0.0	-0.0	-0.0	-0.0	-0.0	-0.0	80935.9765625	-29425.4296875	257.5780334472656
0.202	-0.0	-0.0	-0.0	-2.963376045227051	34.948822021484375	-351.4525146484375	0.0928825661540031	-33.83136367797852	-339.3753662109375	-0.0	-0.0	-0.0	-0.0	-0.0	-0.0	81074.8203125	-30039.140625	138.39808654785156
0.2025	-0.0	-0.0	-0.0	-3.990001678466797	36.20161437988281	-359.77410888671875	0.0971278399229049	-33.83559036254883	-341.8194580078125	-0.0	-0.0	-0.0	-0.0	-0.0	-0.0	81787.375	-30619.982421875	173.68093872070312
0.203	-0.0	-0.0	-0.0	-4.103683471679688	36.642539978027344	-364.8152160644531	0.8026857972145081	-32.90690612792969	-343.2666931152344	-0.0	-0.0	-0.0	-0.0	-0.0	-0.0	82529.0859375	-31447.5078125	230.9589385986328
0.20350000000000001	-0.0	-0.0	-0.0	-4.192893981933594	37.68205642700195	-370.83892822265625	1.7655255794525146	-33.10765838623047	-345.7113952636719	-0.0	-0.0	-0.0	-0.0	-0.0	-0.0	83211.671875	-32382.4609375	498.5879211425781
0.20400000000000001	-0.0	-0.0	-0.0	-3.5147087574005127	37.9847526550293	-377.4891357421875	2.901150703430176	-32.58197784423828	-350.5654602050781	-0.0	-0.0	-0.0	-0.0	-0.0	-0.0	84377.625	-33269.23828125	591.4663696289062
0.20450000000000002	-0.0	-0.0	-0.0	-2.43958044052124	38.41006088256836	-378.357666015625	3.898812294006348	-32.33018112182617	-357.09429931640625	-0.0	-0.0	-0.0	-0.0	-0.0	-0.0	85751.4375	-34175.2109375	804.4427490234375
0.20500000000000002	-0.0	-0.0	-0.0	-1.2748801708221436	38.32607269287109	-379.98052978515625	4.861096382141113	-31.87516975402832	-361.0050659179688	-0.0	-0.0	-0.0	-0.0	-0.0	-0.0	87178.09375	-34723.2578125	972.7697143554688
0.20550000000000002	-0.0	-0.0	-0.0	0.1784210205078125	38.23694610595703	-377.737060546875	5.579620838165283	-31.014589309692383	-363.8159790039063	-0.0	-0.0	-0.0	-0.0	-0.0	-0.0	88178.4921875	-35433.15625	1093.6600341796875
0.20600000000000002	-0.0	-0.0	-0.0	1.784210205078125	38.949989318847656	-379.605224609375	5.677490234375	-30.5777645111084	-366.554443359375	-0.0	-0.0	-0.0	-0.0	-0.0	-0.0	88618.2421875	-36155.9296875	976.7344970703124
0.20650000000000002	-0.0	-0.0	-0.0	2.392542600631714	39.13899993896485	-377.50677490234375	6.144503593444824	-29.56907844543457	-364.55120849609375	-0.0	-0.0	-0.0	-0.0	-0.0	-0.0	88258.71875	-36096.72265625	921.1514892578124
0.20700000000000002	-0.0	-0.0	-0.0	2.703620433807373	39.90859603881836	-379.6468200683594	6.653308868408203	-28.6209774017334	-362.4757080078125	-0.0	-0.0	-0.0	-0.0	-0.0	-0.0	87732.28125	-36531.3125	1037.29931640625
0.20750000000000002	-0.0	-0.0	-0.0	2.4471664428710938	40.33213424682617	-384.8790588378906	7.511566162109375	-27.752159118652344	-362.1648864746094	-0.0	-0.0	-0.0	-0.0	-0.0	-0.0	87905.171875	-36389.61328125	1318.7039794921875
0.20800000000000002	-0.0	-0.0	-0.0	1.9066400527954104	40.32012939453125	-388.0790100097656	8.501694679260254	-27.566017150878903	-360.6736450195313	-0.0	-0.0	-0.0	-0.0	-0.0	-0.0	87360.671875	-36907.55078125	1452.5826416015625
0.2085	-0.0	-0.0	-0.0	1.3992959260940552	41.0835075378418	-395.8702697753906	9.23577117919922	-27.742815017700195	-363.0401306152344	-0.0	-0.0	-0.0	-0.0	-0.0	-0.0	87878.625	-37108.8359375	1482.723876953125
0.209	-0.0	-0.0	-0.0	0.9869672656059264	41.379093170166016	-401.7845153808594	9.69924545288086	-27.73794937133789	-363.2348327636719	-0.0	-0.0	-0.0	-0.0	-0.0	-0.0	88663.3125	-37429.0625	1593.4151611328125
